<?xml version="1.0" encoding="UTF-8"?>
<svg id="Layer_1" xmlns="http://www.w3.org/2000/svg" version="1.1" viewBox="0 0 200 200">
  <!-- Generator: Adobe Illustrator 29.1.0, SVG Export Plug-In . SVG Version: 2.1.0 Build 142)  -->
  <defs>
    <style>
      .st0 {
        fill: none;
      }
    </style>
  </defs>
  <path class="st0" d="M100,14.1C52.5,14.1,13.8,52.8,13.8,100.3s38.6,86.2,86.2,86.2,86.2-38.6,86.2-86.2S147.5,14.1,100,14.1ZM36.1,143.5V57.1h127.8v86.3H36.1Z"/>
  <path d="M100,.3C44.9.3,0,45.2,0,100.3s44.9,100,100,100,100-44.9,100-100S155.1.3,100,.3ZM100,186.5c-47.5,0-86.2-38.6-86.2-86.2S52.5,14.1,100,14.1s86.2,38.6,86.2,86.2-38.6,86.2-86.2,86.2Z"/>
  <polygon points="46.5 73.2 46.5 133 153.5 133 153.5 73.2 100 116 46.5 73.2"/>
  <polygon points="99.7 104.8 143.5 69.7 150 64.5 49.3 64.5 55.8 69.7 99.7 104.8"/>
</svg>