<?xml version="1.0" encoding="UTF-8"?>
<svg id="Layer_1" xmlns="http://www.w3.org/2000/svg" version="1.1" viewBox="0 0 200 200">
  <!-- Generator: Adobe Illustrator 29.1.0, SVG Export Plug-In . SVG Version: 2.1.0 Build 142)  -->
  <defs>
    <style>
      .st0 {
        fill: #231f20;
      }

      .st1 {
        fill: #fff;
      }
    </style>
  </defs>
  <g>
    <circle class="st1" cx="99.6" cy="102.6" r="82.2"/>
    <path class="st0" d="M99.6,191c-48.7,0-88.4-39.6-88.4-88.4S50.9,14.3,99.6,14.3s88.4,39.6,88.4,88.4-39.6,88.4-88.4,88.4ZM99.6,26.5c-42,0-76.1,34.1-76.1,76.1s34.1,76.1,76.1,76.1,76.1-34.1,76.1-76.1S141.6,26.5,99.6,26.5Z"/>
  </g>
  <g>
    <polygon points="52.4 78.7 52.4 131.6 146.9 131.6 146.9 78.7 99.6 116.6 52.4 78.7"/>
    <path class="st1" d="M43.2,64.5v76.3h112.9v-76.3H43.2ZM146.9,131.6H52.4v-52.9l47.2,37.8,47.2-37.8v52.9ZM144.1,69.1l-5.7,4.6-38.7,31-38.7-31-5.7-4.6h89Z"/>
    <polygon points="99.6 104.8 138.4 73.7 144.1 69.1 55.2 69.1 60.9 73.7 99.6 104.8"/>
  </g>
</svg>