<?xml version="1.0" encoding="UTF-8"?>
<svg id="Layer_1" data-name="Layer 1" xmlns="http://www.w3.org/2000/svg" viewBox="0 0 176.7 176.7">
  <defs>
    <style>
      .cls-1 {
        fill: none;
      }
    </style>
  </defs>
  <path class="cls-1" d="M88.35,12.23C46.38,12.23,12.23,46.38,12.23,88.35s34.15,76.12,76.12,76.12,76.12-34.15,76.12-76.12S130.32,12.23,88.35,12.23ZM31.9,126.48V50.22h112.9v76.26H31.9Z"/>
  <path d="M88.35,0C39.63,0,0,39.63,0,88.35s39.63,88.35,88.35,88.35,88.35-39.63,88.35-88.35S137.07,0,88.35,0ZM88.35,164.47c-41.97,0-76.12-34.15-76.12-76.12S46.38,12.23,88.35,12.23s76.12,34.15,76.12,76.12-34.15,76.12-76.12,76.12Z"/>
  <polygon points="41.1 64.41 41.1 117.27 135.6 117.27 135.6 64.41 88.35 102.26 41.1 64.41"/>
  <polygon points="88.06 92.34 126.8 61.3 132.54 56.7 43.57 56.7 49.32 61.3 88.06 92.34"/>
</svg>