<?xml version="1.0" encoding="UTF-8"?>
<svg id="STMN_04" xmlns="http://www.w3.org/2000/svg" version="1.1" viewBox="0 0 234.8 92.9">
  <!-- Generator: Adobe Illustrator 29.1.0, SVG Export Plug-In . SVG Version: 2.1.0 Build 142)  -->
  <defs>
    <style>
      .st0 {
        fill: #3e2221;
      }
    </style>
  </defs>
  <rect class="st0" y="88.6" width="234.8" height="4.3"/>
  <path class="st0" d="M185,67l-.6,22h1.3l.3-12.1h18.4c0,0,1.6,12.1,1.6,12.1h1.3l-1-12.4v-9.5c0,0,3.2-24.3,3.2-24.3h-1.6c0,0-3.2,21-3.2,21h-20.5s-.4,3.3-.4,3.3M186,75.1l.3-8.1h17.9v8.1h-18.2Z"/>
  <g>
    <path class="st0" d="M206.1,67l3.2-24.3h-1.6c0,0-3.2,21-3.2,21h-1.6l.7-8.8s.4-6.8.8-9.8-1.2-9.6-1.5-10.6c-.3-.9-2.2-3.4-2.5-3.8-.3-.4.4-1.2.4-1.2,0,0,1.2-2.2,1.9-2.9.8-.7,1-2.9.7-4-.3-1-1.6-2.3-3-2.9-1.2-.5-4.6-.6-4.6-.6l.2,1-2,2.3.2.9s-1.1,1.1-1.6,1.3-.2.7-.2.7l.5.3v.9s-.2,1.3-.4,1.7c-.2.4.4,1,.4,1l1.9.8.4,1.2s.6.4.6.9-.5,1.7-.5,1.7l-4.6,7.6-.9,9.2s-3.9,3.4-6.5,3.4-4.8,1.7-4.8,1.7l-1.1,2.8s-1.5.5-2.6,1c-1.1.5-1.7,4.6-1.7,4.6l-2,17,2.4.5s-.3,1.7-.5,1.9-3.5,2.1-3.5,2.1c0,0-3.1.5-4.5.8-1.3.2-.5,2.3-.5,2.3h14.3s.1-1.5,0-2.4-.8-2-.8-2v-2.1h.6c0,0,.5-13.9.5-13.9l-.5-1.6,1.4.3,4.8-.3-.6,22h1.3l.3-12.1h18.4c0,0,1.6,12.1,1.6,12.1h1.3l-1-12.4v-9.5c0,0,0,0,0,0ZM186,75.1l.3-8.1h17.9v8.1h-18.2Z"/>
    <path class="st0" d="M198.2,23.6l-4.4-.4v-.4c0-.1,0-.3-.2-.3-.1,0-.2,0-.2.2v1.5c-.2.1,0,.3,0,.3.1,0,.2,0,.2-.2v-.5s4.4.4,4.4.4v-.6c0,0,0,0,0,0Z"/>
  </g>
  <path class="st0" d="M56.8,39.1v-7.1h-.1c0,0-.8-8.1-.8-8.1l-4.6-7.6s-.3-.8-.4-1.4h2c0,.1.8-.2.8-.6s.4-1.7.4-1.7l.4-.8.5-.3s.3-.4,0-.9c-.1-.2-.3-.6-.4-.9h.4c0,0,2.7-1.5,2.6-2.2s-2.6-1.4-2.6-1.4c0,0,.2-1.9.3-3.3.1-1.4-3-2.5-3-2.5-1.2-.5-3.1,0-3.7.2-.5.2-1.2,2.7-1.5,4,0,0,0,0,0,0-.1.1-.2.4-.3.6-.3,0-.8.1-1.8.3-1.5.3-1.2,1.2-1,1.5.4.6,1.9,1.4,2.2,1.6,0,.5,0,.9,0,1.2.1,1,.2,2,.2,2,0,0,0,1.3-.3,1.5-.4.2-1.6,3-2.3,3.7-.3.9-1.9,7.6-1.5,10.6.1.8-.6,2.6-.5,3.7,0,.8-.4,2.5-.4,3.4,0,.7,0,3.1,0,3.1,0,0-.4,2.8-.4,2.5v3.1l-.9,1.3-.5,1.4.7.8-14,17.6,1.6,4.9-3,3.3,3.7,3.7-1,2.4,6.4,2.1,1.8-4.5,3.8,1,.9-4-.7,9.6.6.5v1.5s-.6,1.1-.8,2c-.1.9,0,2.4,0,2.4h14.3s.8-2.1-.5-2.3-4.5-.8-4.5-.8c0,0-3.3-2-3.5-2.1-.2-.1-.3-.8-.3-.8h3.6s1.8-18.8,1.8-18.8l2.6-9.5.4-1.4.7-1.6.6-1.5,3.1-.4-1.2-10.6h0ZM43.1,57.8v.5c-.1,0-.2.1-.2.1l.2-.6h0Z"/>
  <path class="st0" d="M91.9,87.9l-5-17.2.7-.2-.6-1.9-.7.2-3.7-12.9h.5c0-.1-.6-2.1-.6-2.1h-.5c0,.1-.3-.9-.3-.9h.5c0-.1-4-13.5-4-13.5h-.3c0,0-.6-2.1-.6-2.1h1.2v-1.6h-3.2v-1.8h.6v-.8h4.6v-.8h-13.1v-1.1l1.5,1.1,1.3-1.1,1.4,1.1,1.2-1.1,1.3,1.1,1.1-1.1,1.2,1.1,1.2-1.1,1,1.1v-3.4h.4v-1.4h.9v-.5h.6v-1.1h-.6v-.5h-.9v-1.4h-.4v-3.4l-1,1.2-1.2-1.2-1.2,1.2-1.1-1.2-1.3,1.2-1.2-1.2-1.4,1.2-1.4-1.2-1.4,1.2-1.6-1.2h-1.6v-1.4h-7.6v1.2h-1v11.9h1v1.7h14.8v1.8h-3.4v1.6h1.2l-.6,2.1h-.3c0,0-4,13.3-4,13.3h.5c0,.1-.3,1.2-.3,1.2h-.5c0-.1-.6,1.8-.6,1.8h.5c0,.1-3.7,13.1-3.7,13.1l-.7-.2-.6,1.9.7.2-5,17.2c-.3.1-.5.4-.5.8v.4h1.6v-.4c0-.3-.2-.6-.4-.7l5.4-16.9.7.2.6-1.9-.7-.2,4.1-12.8h.5c0,.1.6-1.8.6-1.8h-.5c0-.1.3-1.2.3-1.2h.5c0,.1,4-13.2,4-13.2h-.3c0,0,.9-2.8.9-2.8h1v2.9s-.3,0-.3,0v14h.5v1.3s-.5,0-.5,0v2h.5v10.6c.1,0-.5,0-.5,0v2h.7l.2,18c-.3.1-.5.4-.5.7v.4h1.6v-.4c0-.3-.2-.6-.5-.7l.2-18h.7v-2h-.7v-10.6h.7v-2h-.5v-1.3h.5v-14h-.3v-2.9h1l.9,2.8h-.3c0,0,4,13.4,4,13.4h.5c0-.1.3.9.3.9h-.5c0,.1.6,2.1.6,2.1h.5c0-.1,4.1,12.7,4.1,12.7l-.7.2.6,1.9.7-.2,5.4,16.9c-.3.1-.4.4-.4.7v.4h1.6v-.4c0-.3-.2-.6-.5-.8h0Z"/>
</svg>