<?xml version="1.0" encoding="UTF-8"?>
<svg id="STMN_05" xmlns="http://www.w3.org/2000/svg" version="1.1" viewBox="0 0 234.8 92.3">
  <!-- Generator: Adobe Illustrator 29.1.0, SVG Export Plug-In . SVG Version: 2.1.0 Build 142)  -->
  <defs>
    <style>
      .st0 {
        fill: #3e2221;
      }
    </style>
  </defs>
  <rect class="st0" y="88.1" width="234.8" height="4.3"/>
  <path class="st0" d="M92,87.4l-5-17.2.7-.2-.6-1.9-.7.2-3.7-12.9h.5c0-.1-.6-2.1-.6-2.1h-.5c0,.1-.3-.9-.3-.9h.5c0-.1-4-13.5-4-13.5h-.3c0,0-.6-2.1-.6-2.1h1.2v-1.6h-3.2v-1.8h.6v-.8h4.6v-.8h-11.9c0,0,0-.1,0-.2l.2.2,1.3-1.1,1.4,1.1,1.2-1.1,1.3,1.1,1.1-1.1,1.2,1.1,1.2-1.1,1,1.1v-3.4h.4v-1.4h.9v-.5h.6v-1.1h-.6v-.5h-.9v-1.4h-.4v-3.4l-1,1.2-1.2-1.2-1.2,1.2-1.1-1.2-1.3,1.2-1.2-1.2-1.4,1.2-1.4-1.2-1.4,1.2-1.6-1.2h-1.7s-8.9-3.5-8.9-3.5c0,0-3.9-.6-4.5,0-.6.6-5.3,5.5-6.2,5.6-1,0-9.8,5.3-10.8,6.4s-6.3,6.5-6.8,7.3c-.2.4-1.5,3.8-2.5,6.6h0c-.8,2.2-1.5,4.2-1.5,4.2v.2c.1,0,0,.4,0,.4l-2.7,12.7h9.2l2.2,4.5.4.5-.3.9-3.5,16.5,1.5.8-.3,1s-.6,1.1-.7,1.9c0,.8,0,2.6,0,2.6h25.5s0,0,0,0h1.5v-.4c0-.3-.2-.6-.4-.7l5.4-16.9.7.2.6-1.9-.7-.2,4.1-12.8h.5c0,.1.6-1.8.6-1.8h-.5c0-.1.3-1.2.3-1.2h.5c0,.1,4-13.2,4-13.2h-.3c0,0,.9-2.8.9-2.8h1v2.9s-.3,0-.3,0v14h.5v1.3s-.5,0-.5,0v2h.5v10.6c.1,0-.5,0-.5,0v2h.7l.2,18c-.3.1-.5.4-.5.7v.4h1.6v-.4c0-.3-.2-.6-.5-.7l.2-18h.7v-2h-.7v-10.6h.7v-2h-.5v-1.3h.5v-14h-.3v-2.9h1l.9,2.8h-.3c0,0,4,13.4,4,13.4h.5c0-.1.3.9.3.9h-.5c0,.1.6,2.1.6,2.1h.5c0-.1,4.1,12.7,4.1,12.7l-.7.2.6,1.9.7-.2,5.4,16.9c-.3.1-.4.4-.4.7v.4h1.6v-.4c0-.3-.2-.6-.5-.8h0ZM42.2,65.8l-3.5,16.5,1.5.8-.3,1s0,0-.1.2c-2-.9-3.9-1.7-3.9-1.7l3-11.5s1-4,1.2-4.9c0-.4-.4-3.2-1-6.2h.8l2.2,4.5.4.5-.3.9h0ZM71.5,35.1h-3.4v1.6h1.2l-.6,2.1h-.3c0,0-4,13.3-4,13.3h.5c0,.1-.3,1.2-.3,1.2h-.5c0-.1-.6,1.8-.6,1.8h.5c0,.1-3.7,13.1-3.7,13.1l-.7-.2-.6,1.9.7.2-5,17.2c-.1,0-.2.1-.3.2,0-.4,0-.9-.3-1.2-.5-.7-8.1-3.8-8.1-3.8l3-11.5s1-4,1.2-4.9c0-.4-.4-3.2-1-6.2h1.5v1.5h2v1.3h2.1v1.6h3.7l5.1-16.7c1.5-3.8,3.5-10,4.6-14.2h3.3v1.8h0Z"/>
  <g>
    <path class="st0" d="M206.1,66.5l3.2-24.3h-1.6c0,0-3.2,21-3.2,21h-1.6l.7-8.8s.4-6.8.8-9.8-1.2-9.6-1.5-10.6c-.3-.9-2.2-3.4-2.5-3.8-.3-.4.4-1.2.4-1.2,0,0,1.2-2.2,1.9-2.9.8-.7,1-2.9.7-4-.3-1-1.6-2.3-3-2.9-1.2-.5-4.6-.6-4.6-.6l.2,1-2,2.3.2.9s-1.1,1.1-1.6,1.3-.2.7-.2.7l.5.3v.9s-.2,1.3-.4,1.7c-.2.4.4,1,.4,1l1.9.8.4,1.2s.6.4.6.9-.5,1.7-.5,1.7l-4.6,7.6-.9,9.2s-3.9,3.4-6.5,3.4-4.8,1.7-4.8,1.7l-1.1,2.8s-1.5.5-2.6,1c-1.1.5-1.7,4.6-1.7,4.6l-2,17,2.4.5s-.3,1.7-.5,1.9-3.5,2.1-3.5,2.1c0,0-3.1.5-4.5.8-1.3.2-.5,2.3-.5,2.3h14.3s.1-1.5,0-2.4-.8-2-.8-2v-2.1h.6c0,0,.5-13.9.5-13.9l-.5-1.6,1.4.3,4.8-.3-.6,22h1.3l.3-12.1h18.4c0,0,1.6,12.1,1.6,12.1h1.3l-1-12.4v-9.5c0,0,0,0,0,0ZM186,74.6l.3-8.1h17.9v8.1h-18.2Z"/>
    <path class="st0" d="M198.2,23.1l-4.4-.4v-.4c0-.1,0-.3-.2-.3-.1,0-.2,0-.2.2v1.5c-.2.1,0,.3,0,.3.1,0,.2,0,.2-.2v-.5s4.4.4,4.4.4v-.6c0,0,0,0,0,0Z"/>
  </g>
</svg>