<?xml version="1.0" encoding="UTF-8"?>
<svg id="STMN_01" xmlns="http://www.w3.org/2000/svg" version="1.1" viewBox="0 0 234.8 92.4">
  <!-- Generator: Adobe Illustrator 29.1.0, SVG Export Plug-In . SVG Version: 2.1.0 Build 142)  -->
  <defs>
    <style>
      .st0 {
        fill: #3e2221;
      }
    </style>
  </defs>
  <rect class="st0" y="88.1" width="234.8" height="4.3"/>
  <path class="st0" d="M185,66.5l-.6,22h1.3l.3-12.1h18.4c0,0,1.6,12.1,1.6,12.1h1.3l-1-12.4v-9.5c0,0,3.2-24.3,3.2-24.3h-1.6c0,0-3.2,21-3.2,21h-20.5s-.4,3.3-.4,3.3M186,74.6l.3-8.1h17.9v8.1h-18.2Z"/>
  <path class="st0" d="M91.9,87.4l-5-17.2.7-.2-.6-1.9-.7.2-3.7-12.9h.5c0-.1-.6-2.1-.6-2.1h-.5c0,.1-.3-.9-.3-.9h.5c0-.1-4-13.5-4-13.5h-.3c0,0-.6-2.1-.6-2.1h1.2v-1.6h-3.2v-1.8h.6v-.8h4.6v-.8h-13.1v-1.1l1.5,1.1,1.3-1.1,1.4,1.1,1.2-1.1,1.3,1.1,1.1-1.1,1.2,1.1,1.2-1.1,1,1.1v-3.4h.4v-1.4h.9v-.5h.6v-1.1h-.6v-.5h-.9v-1.4h-.4v-3.4l-1,1.2-1.2-1.2-1.2,1.2-1.1-1.2-1.3,1.2-1.2-1.2-1.4,1.2-1.4-1.2-1.4,1.2-1.6-1.2h-1.6v-1.4h-7.6v1.2h-1v11.9h1v1.7h14.8v1.8h-3.4v1.6h1.2l-.6,2.1h-.3c0,0-4,13.3-4,13.3h.5c0,.1-.3,1.2-.3,1.2h-.5c0-.1-.6,1.8-.6,1.8h.5c0,.1-3.7,13.1-3.7,13.1l-.7-.2-.6,1.9.7.2-5,17.2c-.3.1-.5.4-.5.8v.4h1.6v-.4c0-.3-.2-.6-.4-.7l5.4-16.9.7.2.6-1.9-.7-.2,4.1-12.8h.5c0,.1.6-1.8.6-1.8h-.5c0-.1.3-1.2.3-1.2h.5c0,.1,4-13.2,4-13.2h-.3c0,0,.9-2.8.9-2.8h1v2.9s-.3,0-.3,0v14h.5v1.3s-.5,0-.5,0v2h.5v10.6c.1,0-.5,0-.5,0v2h.7l.2,18c-.3.1-.5.4-.5.7v.4h1.6v-.4c0-.3-.2-.6-.5-.7l.2-18h.7v-2h-.7v-10.6h.7v-2h-.5v-1.3h.5v-14h-.3v-2.9h1l.9,2.8h-.3c0,0,4,13.4,4,13.4h.5c0-.1.3.9.3.9h-.5c0,.1.6,2.1.6,2.1h.5c0-.1,4.1,12.7,4.1,12.7l-.7.2.6,1.9.7-.2,5.4,16.9c-.3.1-.4.4-.4.7v.4h1.6v-.4c0-.3-.2-.6-.5-.8h0Z"/>
</svg>