<?xml version="1.0" encoding="UTF-8"?>
<svg id="STMN_03" xmlns="http://www.w3.org/2000/svg" version="1.1" viewBox="0 0 234.8 92.2">
  <!-- Generator: Adobe Illustrator 29.1.0, SVG Export Plug-In . SVG Version: 2.1.0 Build 142)  -->
  <defs>
    <style>
      .st0 {
        fill: #3e2221;
      }
    </style>
  </defs>
  <rect class="st0" y="87.9" width="234.8" height="4.3"/>
  <path class="st0" d="M185,66.3l-.6,22h1.3l.3-12.1h18.4c0,0,1.6,12.1,1.6,12.1h1.3l-1-12.4v-9.5c0,0,3.2-24.3,3.2-24.3h-1.6c0,0-3.2,21-3.2,21h-20.5s-.4,3.3-.4,3.3M186,74.4l.3-8.1h17.9v8.1h-18.2Z"/>
  <path class="st0" d="M91.9,87.2l-5-17.2.7-.2-.6-1.9-.7.2-3.7-12.9h.5c0-.1-.6-2.1-.6-2.1h-.5c0,.1-.3-.9-.3-.9h.5c0-.1-4-13.5-4-13.5h-.3c0,0-.6-2.1-.6-2.1h1.2v-1.6h-3.2v-1.8h.6v-.8h4.6v-.8h-13.1v-1.1l1.5,1.1,1.3-1.1,1.4,1.1,1.2-1.1,1.3,1.1,1.1-1.1,1.2,1.1,1.2-1.1,1,1.1v-3.4h.4v-1.4h.9v-.5h.6v-1.1h-.6v-.5h-.9v-1.4h-.4v-3.4l-1,1.2-1.2-1.2-1.2,1.2-1.1-1.2-1.3,1.2-1.2-1.2-1.4,1.2-1.4-1.2-1.4,1.2-1.6-1.2h-1.6v-1.4h-7.6v1.2h-1v11.9h1v1.7h14.8v1.8h-3.4v1.6h1.2l-.6,2.1h-.3c0,0-4,13.3-4,13.3h.5c0,.1-.3,1.2-.3,1.2h-.5c0-.1-.6,1.8-.6,1.8h.5c0,.1-3.7,13.1-3.7,13.1l-.7-.2-.6,1.9.7.2-5,17.2c-.3.1-.5.4-.5.8v.4h1.6v-.4c0-.3-.2-.6-.4-.7l5.4-16.9.7.2.6-1.9-.7-.2,4.1-12.8h.5c0,.1.6-1.8.6-1.8h-.5c0-.1.3-1.2.3-1.2h.5c0,.1,4-13.2,4-13.2h-.3c0,0,.9-2.8.9-2.8h1v2.9s-.3,0-.3,0v14h.5v1.3s-.5,0-.5,0v2h.5v10.6c.1,0-.5,0-.5,0v2h.7l.2,18c-.3.1-.5.4-.5.7v.4h1.6v-.4c0-.3-.2-.6-.5-.7l.2-18h.7v-2h-.7v-10.6h.7v-2h-.5v-1.3h.5v-14h-.3v-2.9h1l.9,2.8h-.3c0,0,4,13.4,4,13.4h.5c0-.1.3.9.3.9h-.5c0,.1.6,2.1.6,2.1h.5c0-.1,4.1,12.7,4.1,12.7l-.7.2.6,1.9.7-.2,5.4,16.9c-.3.1-.4.4-.4.7v.4h1.6v-.4c0-.3-.2-.6-.5-.8h0Z"/>
  <path class="st0" d="M43.5,0s3.3.5,3.5,1.8.4,3.3.4,3.3c0,0,2.7.1,2.9.9.2.7-1.7,2-2.1,1.9-.4,0,0,.9,0,.9l-.8,2.1-.4,2.4.5,1.2,2.8,1.4,5,1.8,1.8,16.1-4.6,6.5,1.3,10.4-2,.6,4.2,32.7-1.6.7,6.9,2.1,1,1.7h-6s-6.7-.3-6.7-.3l.8-3.2-1.5-.5-5.1-32-4.8,31.6-1.3.3.5,3.8h-12.5s1.7-1.7,1.7-1.7l5.3-1.4,1-1h-1.4l3.2-32.5-1.4-.3.8-10.4-5.3-7.3,3.2-14.7,6-2.7,2-1.8s-.9-2.1-.9-2.5-.5-2.5-.5-2.5c0,0-2.5-.7-2.5-1.1,0-.4-.8-1,.6-1.6s1.9-.7,1.9-.7c0,0,.1-4.5.6-4.9.5-.4,2.3-1.1,3.5-.9h0Z"/>
  <polygon class="st0" points="31.9 44.2 27.7 61.6 29.8 63.8 27.7 69.1 41 71.5 39.6 54.6 37.9 42.8 36.5 37.6 31.9 44.2"/>
  <g>
    <path class="st0" d="M178.4,83.4v-1.5l.6-.5-1.1-15.6-1.6-7-.8-4.2-.4-2.6v-2.7c0,0,1.1-.7,1.1-.7l-.4-1.9h1.9l1.5-1.9-.5-1.4-.9-1.3v-3.1c0,.3-.4-2.5-.4-2.5,0,0,0-2.4,0-3.1,0-.8-.4-2.5-.4-3.4,0-1.1-.6-2.9-.5-3.7.4-2.9-1.2-9.6-1.5-10.6-.3-.9-2.2-3.4-2.5-3.8-.3-.4.4-1.2.4-1.2,0,0,1.2-2.2,1.9-2.9.8-.7,1-2.9.7-4-.3-1-1.6-2.3-3-2.9-1.2-.5-4.6-.6-4.6-.6l.2,1-2,2.3.2.9s-1.1,1.1-1.6,1.3-.2.7-.2.7l.5.3v.9s-.2,1.3-.4,1.7c-.2.4.4,1,.4,1l1.9.8.4,1.2s.6.4.6.9-.5,1.7-.5,1.7l-4.6,7.6-.8,8.2h-.1c0,0,0,7,0,7l-1.2,10.6,3.1.4.6,1.5.7,1.6.4,1.4,2.6,9.5,1.8,18.8h3.6s-.1.7-.3.8c-.2.1-3.5,2.1-3.5,2.1,0,0-3.1.5-4.5.8-1.3.2-.5,2.3-.5,2.3h14.3s.1-1.5,0-2.4-.8-2-.8-2h0Z"/>
    <path class="st0" d="M170.5,4.8l-4.4-.4v-.4c0-.1,0-.3-.2-.3-.1,0-.2,0-.2.2v1.5c-.2.1,0,.3,0,.3.1,0,.2,0,.2-.2v-.5s4.4.4,4.4.4v-.6c0,0,0,0,0,0Z"/>
  </g>
</svg>