<svg xmlns="http://www.w3.org/2000/svg" viewBox="0 0 1642.9 92.4" xmlns:v="https://vecta.io/nano"><g fill="#3e2221"><path d="M0,88.1h234.8v4.3H0v-4.3Z"/><path d="M185 66.5l-.6 22h1.3l.3-12.1h18.4l1.6 12.1h1.3l-1-12.4v-9.5l3.2-24.3h-1.6l-3.2 21h-20.5l-.4 3.3m2.2 8l.3-8.1h17.9v8.1H186zM91.9 87.4l-5-17.2.7-.2-.6-1.9-.7.2-3.7-12.9h.5l-.6-2.1H82l-.3-.9h.5l-4-13.5h-.3l-.6-2.1h1.2v-1.6h-3.2v-1.8h.6v-.8h4.6v-.8H67.4v-1.1l1.5 1.1 1.3-1.1 1.4 1.1 1.2-1.1 1.3 1.1 1.1-1.1 1.2 1.1 1.2-1.1 1 1.1v-3.4h.4V27h.9v-.5h.6v-1.1h-.6v-.5H79v-1.4h-.4v-3.4l-1 1.2-1.2-1.2-1.2 1.2-1.1-1.2-1.3 1.2-1.2-1.2-1.4 1.2-1.4-1.2-1.4 1.2-1.6-1.2h-1.6v-1.4h-7.6v1.2h-1v11.9h1v1.7h14.8v1.8H68v1.6h1.2l-.6 2.1h-.3l-4 13.3h.5l-.3 1.2H64l-.6 1.8h.5l-3.7 13.1-.7-.2-.6 1.9.7.2-5 17.2c-.3 0-.5.4-.5.8v.4h1.6v-.4c0-.3-.2-.6-.4-.7l5.4-16.9.7.2.6-1.9-.7-.2L65.4 56h.5l.6-1.8H66l.3-1.2h.5l4-13.2h-.3l.9-2.8h1v2.9h-.3v14h.5v1.3h-.5v2h.5v10.6h-.5v2h.7l.2 18c-.3 0-.5.4-.5.7v.4h1.6v-.4c0-.3-.2-.6-.5-.7l.2-18h.7v-2h-.7V57.2h.7v-2H74v-1.3h.5v-14h-.3V37h1l.9 2.8h-.3l4 13.4h.5l.3.9h-.5l.6 2.1h.5l4.1 12.7-.7.2.6 1.9.7-.2 5.4 16.9c-.3 0-.4.4-.4.7v.4h1.6v-.4c0-.3-.2-.6-.5-.8h0v-.2zm142.9.6h234.8v4.3H234.8V88z"/><path d="M419.8 66.4l-.6 22h1.3l.3-12.1h18.4l1.6 12.1h1.3l-1-12.4v-9.5l3.2-24.3h-1.6l-3.2 21H419l-.4 3.3m2.2 8l.3-8.1H439v8.1h-18.2zm-94.1 12.8l-5-17.2.7-.2-.6-1.9-.7.2-3.7-12.9h.5l-.6-2.1h-.5l-.3-.9h.5l-4-13.5h-.3l-.6-2.1h1.2v-1.6h-3.2v-1.8h.6v-.8h4.6v-.8h-13.1v-1.1l1.5 1.1 1.3-1.1 1.4 1.1 1.2-1.1 1.3 1.1 1.1-1.1 1.2 1.1 1.2-1.1 1 1.1v-3.4h.4v-1.4h.9v-.5h.6v-1.1h-.6v-.5h-.9v-1.4h-.4V20l-1 1.2-1.2-1.2-1.2 1.2-1.1-1.2-1.3 1.2-1.2-1.2-1.4 1.2-1.4-1.2-1.4 1.2-1.6-1.2H299v-1.4h-7.6v1.2h-1v11.9h1v1.7h14.8v1.8h-3.4v1.6h1.2l-.6 2.1h-.3l-4 13.3h.5l-.3 1.2h-.5l-.6 1.8h.5L295 68.3l-.7-.2-.6 1.9.7.2-5 17.2c-.3 0-.5.4-.5.8v.4h1.6v-.4c0-.3-.2-.6-.4-.7l5.4-16.9.7.2.6-1.9-.7-.2 4.1-12.8h.5l.6-1.8h-.5l.3-1.2h.5l4-13.2h-.3l.9-2.8h1v2.9h-.3v14h.5v1.3h-.5v2h.5v10.6h-.5v2h.7l.2 18c-.3 0-.5.4-.5.7v.4h1.6v-.4c0-.3-.2-.6-.5-.7l.2-18h.7v-2h-.7V57.1h.7v-2h-.5v-1.3h.5v-14h-.3v-2.9h1l.9 2.8h-.3l4 13.4h.5l.3.9h-.5l.6 2.1h.5l4.1 12.7-.7.2.6 1.9.7-.2 5.4 16.9c-.3 0-.4.4-.4.7v.4h1.6v-.4c0-.3-.2-.6-.5-.8h0v-.2z"/><use href="#B"/><path d="M468.9 88h234.8v4.3H468.9V88z"/><path d="M653.9 66.4l-.6 22h1.3l.3-12.1h18.4l1.6 12.1h1.3l-1-12.4v-9.5l3.2-24.3h-1.6l-3.2 21h-20.5l-.4 3.3m2.2 8l.3-8.1h17.9v8.1h-18.2zm-94.1 12.8l-5-17.2.7-.2-.6-1.9-.7.2-3.7-12.9h.5l-.6-2.1h-.5l-.3-.9h.5l-4-13.5h-.3l-.6-2.1h1.2v-1.6h-3.2v-1.8h.6v-.8h4.6v-.8h-13.1v-1.1l1.5 1.1 1.3-1.1 1.4 1.1 1.2-1.1 1.3 1.1 1.1-1.1 1.2 1.1 1.2-1.1 1 1.1v-3.4h.4v-1.4h.9v-.5h.6v-1.1h-.6v-.5h-.9v-1.4h-.4V20l-1 1.2-1.2-1.2-1.2 1.2L543 20l-1.3 1.2-1.2-1.2-1.4 1.2-1.4-1.2-1.4 1.2-1.6-1.2h-1.6v-1.4h-7.6v1.2h-1v11.9h1v1.7h14.8v1.8h-3.4v1.6h1.2l-.6 2.1h-.3l-4 13.3h.5l-.3 1.2h-.5l-.6 1.8h.5l-3.7 13.1-.7-.2-.6 1.9.7.2-5 17.2c-.3 0-.5.4-.5.8v.4h1.6v-.4c0-.3-.2-.6-.4-.7l5.4-16.9.7.2.6-1.9-.7-.2 4.1-12.8h.5l.6-1.8h-.5l.3-1.2h.5l4-13.2h-.3l.9-2.8h1v2.9h-.3v14h.5v1.3h-.5v2h.5v10.6h-.5v2h.7l.2 18c-.3 0-.5.4-.5.7v.4h1.6v-.4c0-.3-.2-.6-.5-.7l.2-18h.7v-2h-.7V57.1h.7v-2h-.5v-1.3h.5v-14h-.3v-2.9h1l.9 2.8h-.3l4 13.4h.5l.3.9h-.5l.6 2.1h.5l4.1 12.7-.7.2.6 1.9.7-.2 5.4 16.9c-.3 0-.4.4-.4.7v.4h1.6v-.4c0-.3-.2-.6-.5-.8h0v-.2z"/><use href="#B" x="234.1"/><path d="M500.8 44.3l-4.2 17.4 2.1 2.2-2.1 5.3 13.3 2.4-1.4-16.9-1.7-11.8-1.4-5.2-4.6 6.6zm146.5 39.2V82l.6-.5-1.1-15.6-1.6-7-.8-4.2-.4-2.6v-2.7l1.1-.7-.4-1.9h1.9l1.5-1.9-.5-1.4-.9-1.3v-3.1c0 .3-.4-2.5-.4-2.5v-3.1c0-.8-.4-2.5-.4-3.4s-.6-2.9-.5-3.7c.4-2.9-1.2-9.6-1.5-10.6-.3-.9-2.2-3.4-2.5-3.8s.4-1.2.4-1.2 1.2-2.2 1.9-2.9c.8-.7 1-2.9.7-4-.3-1-1.6-2.3-3-2.9-1.2-.5-4.6-.6-4.6-.6l.2 1-2 2.3.2.9s-1.1 1.1-1.6 1.3-.2.7-.2.7l.5.3v.9s-.2 1.3-.4 1.7.4 1 .4 1l1.9.8.4 1.2s.6.4.6.9-.5 1.7-.5 1.7l-4.6 7.6-.8 8.2h-.1v7l-1.2 10.6 3.1.4.6 1.5.7 1.6.4 1.4 2.6 9.5 1.8 18.8h3.6s-.1.7-.3.8-3.5 2.1-3.5 2.1-3.1.5-4.5.8c-1.3.2-.5 2.3-.5 2.3h14.3s.1-1.5 0-2.4-.8-2-.8-2h0l.2.2z"/><path d="M639.4 4.9l-4.4-.4v-.4s0-.3-.2-.3-.2 0-.2.2v1.5c-.2 0 0 .3 0 .3.1 0 .2 0 .2-.2v-.5l4.4.4v-.6h.2zm64.3 83.4h234.8v4.3H703.7v-4.3z"/><path d="M888.7 66.7l-.6 22h1.3l.3-12.1h18.4l1.6 12.1h1.3l-1-12.4v-9.5l3.2-24.3h-1.6l-3.2 21h-20.5l-.4 3.3m2.2 8l.3-8.1h17.9v8.1h-18.2z"/><path d="M909.8 66.7l3.2-24.3h-1.6l-3.2 21h-1.6l.7-8.8.8-9.8c.4-3-1.2-9.6-1.5-10.6-.3-.9-2.2-3.4-2.5-3.8s.4-1.2.4-1.2 1.2-2.2 1.9-2.9c.8-.7 1-2.9.7-4-.3-1-1.6-2.3-3-2.9-1.2-.5-4.6-.6-4.6-.6l.2 1-2 2.3.2.9s-1.1 1.1-1.6 1.3-.2.7-.2.7l.5.3v.9s-.2 1.3-.4 1.7.4 1 .4 1l1.9.8.4 1.2s.6.4.6.9-.5 1.7-.5 1.7l-4.6 7.6-.9 9.2s-3.9 3.4-6.5 3.4-4.8 1.7-4.8 1.7l-1.1 2.8s-1.5.5-2.6 1-1.7 4.6-1.7 4.6l-2 17 2.4.5s-.3 1.7-.5 1.9-3.5 2.1-3.5 2.1-3.1.5-4.5.8c-1.3.2-.5 2.3-.5 2.3h14.3s.1-1.5 0-2.4-.8-2-.8-2v-2.1h.6l.5-13.9-.5-1.6 1.4.3 4.8-.3-.6 22h1.3l.3-12.1h18.4l1.6 12.1h1.3l-1-12.4v-9.5.2zm-20.1 8.1l.3-8.1h17.9v8.1h-18.2z"/><path d="M901.9 23.3l-4.4-.4v-.4c0-.1 0-.3-.2-.3s-.2 0-.2.2v1.5c-.2.1 0 .3 0 .3.1 0 .2 0 .2-.2v-.5l4.4.4v-.6h.2zM760.5 38.8v-7.1h0l-.8-8.1-4.6-7.6s-.3-.8-.4-1.4h2c0 .1.8-.2.8-.6s.4-1.7.4-1.7l.4-.8.5-.3s.3-.4 0-.9l-.4-.9h.4s2.7-1.5 2.6-2.2-2.6-1.4-2.6-1.4l.3-3.3c0-1.4-3-2.5-3-2.5-1.2-.5-3.1 0-3.7.2-.5.2-1.2 2.7-1.5 4l-.3.6c-.3 0-.8 0-1.8.3-1.5.3-1.2 1.2-1 1.5.4.6 1.9 1.4 2.2 1.6v1.2l.2 2s0 1.3-.3 1.5c-.4.2-1.6 3-2.3 3.7-.3.9-1.9 7.6-1.5 10.6 0 .8-.6 2.6-.5 3.7 0 .8-.4 2.5-.4 3.4v3.1s-.4 2.8-.4 2.5V43l-.9 1.3-.5 1.4.7.8-14 17.6 1.6 4.9-3 3.3 3.7 3.7-1 2.4 6.4 2.1 1.8-4.5 3.8 1 .9-4-.7 9.6.6.5v1.5s-.6 1.1-.8 2V89h14.3s.8-2.1-.5-2.3-4.5-.8-4.5-.8l-3.5-2.1c-.2 0-.3-.8-.3-.8h3.6l1.8-18.8 2.6-9.5.4-1.4.7-1.6.6-1.5 3.1-.4-1.2-10.6h0v-.4zm-13.7 18.7v.5h-.2l.2-.6h0z"/><path d="M795.6 87.6l-5-17.2.7-.2-.6-1.9-.7.2-3.7-12.9h.5l-.6-2.1h-.5l-.3-.9h.5l-4-13.5h-.3L781 37h1.2v-1.6H779v-1.8h.6v-.8h4.6V32h-13.1v-1.1l1.5 1.1 1.3-1.1 1.4 1.1 1.2-1.1 1.3 1.1 1.1-1.1 1.2 1.1 1.2-1.1 1 1.1v-3.4h.4v-1.4h.9v-.5h.6v-1.1h-.6v-.5h-.9v-1.4h-.4v-3.4l-1 1.2-1.2-1.2-1.2 1.2-1.1-1.2-1.3 1.2-1.2-1.2-1.4 1.2-1.4-1.2-1.4 1.2-1.6-1.2h-1.6v-1.4h-7.6v1.2h-1V32h1v1.7h14.8v1.8h-3.4v1.6h1.2l-.6 2.1h-.3l-4 13.3h.5l-.3 1.2h-.5l-.6 1.8h.5l-3.7 13.1-.7-.2-.6 1.9.7.2-5 17.2c-.3 0-.5.4-.5.8v.4h1.6v-.4c0-.3-.2-.6-.4-.7l5.4-16.9.7.2.6-1.9-.7-.2 4.1-12.8h.5l.6-1.8h-.5l.3-1.2h.5l4-13.2h-.3l.9-2.8h1v2.9h-.3v14h.5v1.3h-.5v2h.5V68h-.5v2h.7l.2 18c-.3 0-.5.4-.5.7v.4h1.6v-.4c0-.3-.2-.6-.5-.7l.2-18h.7v-2h-.7V57.4h.7v-2h-.5v-1.3h.5v-14h-.3v-2.9h1l.9 2.8h-.3l4 13.4h.5l.3.9h-.5l.6 2.1h.5l4.1 12.7-.7.2.6 1.9.7-.2 5.4 16.9c-.3 0-.4.4-.4.7v.4h1.6v-.4c0-.3-.2-.6-.5-.8h0v-.2zm142.9.8h234.8v4.3H938.5v-4.3z"/><path d="M1030.5 87.7l-5-17.2.7-.2-.6-1.9-.7.2-3.7-12.9h.5l-.6-2.1h-.5l-.3-.9h.5l-4-13.5h-.3l-.6-2.1h1.2v-1.6h-3.2v-1.8h.6v-.8h4.6v-.8h-11.9v-.2l.2.2 1.3-1.1 1.4 1.1 1.2-1.1 1.3 1.1 1.1-1.1 1.2 1.1 1.2-1.1 1 1.1v-3.4h.4v-1.4h.9v-.5h.6v-1.1h-.6v-.5h-.9v-1.4h-.4v-3.4l-1 1.2-1.2-1.2-1.2 1.2-1.1-1.2-1.3 1.2-1.2-1.2-1.4 1.2-1.4-1.2-1.4 1.2-1.6-1.2h-1.7l-8.9-3.5s-3.9-.6-4.5 0-5.3 5.5-6.2 5.6c-1 0-9.8 5.3-10.8 6.4s-6.3 6.5-6.8 7.3c-.2.4-1.5 3.8-2.5 6.6h0l-1.5 4.2v.2c.1 0 0 .4 0 .4l-2.7 12.7h9.2l2.2 4.5.4.5-.3.9-3.5 16.5 1.5.8-.3 1s-.6 1.1-.7 1.9V89h27v-.4c0-.3-.2-.6-.4-.7l5.4-16.9.7.2.6-1.9-.7-.2 4.1-12.8h.5l.6-1.8h-.5l.3-1.2h.5l4-13.2h-.3l.9-2.8h1v2.9h-.3v14h.5v1.3h-.5v2h.5v10.6h-.5v2h.7l.2 18c-.3 0-.5.4-.5.7v.4h1.6v-.4c0-.3-.2-.6-.5-.7l.2-18h.7v-2h-.7V57.5h.7v-2h-.5v-1.3h.5v-14h-.3v-2.9h1l.9 2.8h-.3l4 13.4h.5l.3.9h-.5l.6 2.1h.5l4.1 12.7-.7.2.6 1.9.7-.2 5.4 16.9c-.3 0-.4.4-.4.7v.4h1.6v-.4c0-.3-.2-.6-.5-.8h0v-.2zm-49.8-21.6l-3.5 16.5 1.5.8-.3 1v.2l-4-1.7 3-11.5 1.2-4.9c0-.4-.4-3.2-1-6.2h.8l2.2 4.5.4.5-.3.9h0zm29.3-30.7h-3.4V37h1.2l-.6 2.1h-.3l-4 13.3h.5l-.3 1.2h-.5l-.6 1.8h.5l-3.7 13.1-.7-.2-.6 1.9.7.2-5 17.2s-.2 0-.3.2c0-.4 0-.9-.3-1.2-.5-.7-8.1-3.8-8.1-3.8l3-11.5 1.2-4.9c0-.4-.4-3.2-1-6.2h1.5v1.5h2V63h2.1v1.6h3.7l5.1-16.7c1.5-3.8 3.5-10 4.6-14.2h3.3v1.8h0zm134.6 31.4l3.2-24.3h-1.6l-3.2 21h-1.6l.7-8.8s.4-6.8.8-9.8-1.2-9.6-1.5-10.6c-.3-.9-2.2-3.4-2.5-3.8s.4-1.2.4-1.2 1.2-2.2 1.9-2.9c.8-.7 1-2.9.7-4-.3-1-1.6-2.3-3-2.9-1.2-.5-4.6-.6-4.6-.6l.2 1-2 2.3.2.9s-1.1 1.1-1.6 1.3-.2.7-.2.7l.5.3v.9s-.2 1.3-.4 1.7.4 1 .4 1l1.9.8.4 1.2s.6.4.6.9-.5 1.7-.5 1.7l-4.6 7.6-.9 9.2s-3.9 3.4-6.5 3.4-4.8 1.7-4.8 1.7l-1.1 2.8s-1.5.5-2.6 1-1.7 4.6-1.7 4.6l-2 17 2.4.5s-.3 1.7-.5 1.9-3.5 2.1-3.5 2.1-3.1.5-4.5.8c-1.3.2-.5 2.3-.5 2.3h14.3s.1-1.5 0-2.4-.8-2-.8-2V82h.6l.5-13.9-.5-1.6 1.4.3 4.8-.3-.6 22h1.3l.3-12.1h18.4l1.6 12.1h1.3l-1-12.4v-9.5.2zm-20.1 8.1l.3-8.1h17.9v8.1h-18.2z"/><use href="#C"/><path d="M1408.1,88.4h234.8v4.3h-234.8v-4.3Z"/><path d="M1500.1 87.7l-5-17.2.7-.2-.6-1.9-.7.2-3.7-12.9h.5l-.6-2.1h-.5l-.3-.9h.5l-4-13.5h-.3l-.6-2.1h1.2v-1.6h-3.2v-1.8h.6v-.8h4.6v-.8h-11.9v-.2l.2.2 1.3-1.1 1.4 1.1 1.2-1.1 1.3 1.1 1.1-1.1 1.2 1.1 1.2-1.1 1 1.1v-3.4h.4v-1.4h.9v-.5h.6v-1.1h-.6v-.5h-.9v-1.4h-.4v-3.4l-1 1.2-1.2-1.2-1.2 1.2-1.1-1.2-1.3 1.2-1.2-1.2-1.4 1.2-1.4-1.2-1.4 1.2-1.6-1.2h-1.7l-8.9-3.5s-3.9-.6-4.5 0-5.3 5.5-6.2 5.6c-1 0-9.8 5.3-10.8 6.4s-6.3 6.5-6.8 7.3c-.2.4-1.5 3.8-2.5 6.6h0L1431 47v.2c.1 0 0 .4 0 .4l-2.7 12.7h9.2l2.2 4.5.4.5-.3.9-3.5 16.5 1.5.8-.3 1s-.6 1.1-.7 1.9V89h27v-.4c0-.3-.2-.6-.4-.7l5.4-16.9.7.2.6-1.9-.7-.2 4.1-12.8h.5l.6-1.8h-.5l.3-1.2h.5l4-13.2h-.3l.9-2.8h1v2.9h-.3v14h.5v1.3h-.5v2h.5v10.6h-.5v2h.7l.2 18c-.3 0-.5.4-.5.7v.4h1.6v-.4c0-.3-.2-.6-.5-.7l.2-18h.7v-2h-.7V57.5h.7v-2h-.5v-1.3h.5v-14h-.3v-2.9h1l.9 2.8h-.3l4 13.4h.5l.3.9h-.5l.6 2.1h.5l4.1 12.7-.7.2.6 1.9.7-.2 5.4 16.9c-.3 0-.4.4-.4.7v.4h1.6v-.4c0-.3-.2-.6-.5-.8h0v-.2zm-49.8-21.6l-3.5 16.5 1.5.8-.3 1v.2l-4-1.7 3-11.5 1.2-4.9c0-.4-.4-3.2-1-6.2h.8l2.2 4.5.4.5-.3.9h0zm29.3-30.7h-3.4V37h1.2l-.6 2.1h-.3l-4 13.3h.5l-.3 1.2h-.5l-.6 1.8h.5l-3.7 13.1-.7-.2-.6 1.9.7.2-5 17.2s-.2 0-.3.2c0-.4 0-.9-.3-1.2-.5-.7-8.1-3.8-8.1-3.8l3-11.5 1.2-4.9c0-.4-.4-3.2-1-6.2h1.5v1.5h2V63h2.1v1.6h3.7l5.1-16.7c1.5-3.8 3.5-10 4.6-14.2h3.3v1.8h0zm134.6 31.4l3.2-24.3h-1.6l-3.2 21h-1.6l.7-8.8s.4-6.8.8-9.8-1.2-9.6-1.5-10.6c-.3-.9-2.2-3.4-2.5-3.8s.4-1.2.4-1.2 1.2-2.2 1.9-2.9c.8-.7 1-2.9.7-4-.3-1-1.6-2.3-3-2.9-1.2-.5-4.6-.6-4.6-.6l.2 1-2 2.3.2.9s-1.1 1.1-1.6 1.3-.2.7-.2.7l.5.3v.9s-.2 1.3-.4 1.7.4 1 .4 1l1.9.8.4 1.2s.6.4.6.9-.5 1.7-.5 1.7l-4.6 7.6-.9 9.2s-3.9 3.4-6.5 3.4-4.8 1.7-4.8 1.7l-1.1 2.8s-1.5.5-2.6 1-1.7 4.6-1.7 4.6l-2 17 2.4.5s-.3 1.7-.5 1.9-3.5 2.1-3.5 2.1-3.1.5-4.5.8c-1.3.2-.5 2.3-.5 2.3h14.3s.1-1.5 0-2.4-.8-2-.8-2V82h.6l.5-13.9-.5-1.6 1.4.3 4.8-.3-.6 22h1.3l.3-12.1h18.4l1.6 12.1h1.3l-1-12.4v-9.5.2zm-20.1 8.1l.3-8.1h17.9v8.1h-18.2z"/><use href="#C" x="469.6"/></g><defs ><path id="B" d="M278.3 0s3.3.5 3.5 1.8l.4 3.3s2.7 0 2.9.9c.2.7-1.7 2-2.1 1.9-.4 0 0 .9 0 .9l-.8 2.1-.4 2.4.5 1.2 2.8 1.4 5 1.8 1.8 16.1-4.6 6.5 1.3 10.4-2 .6 4.2 32.7-1.6.7 6.9 2.1 1 1.7h-6l-6.7-.3.8-3.2-1.5-.5-5.1-32-4.8 31.6-1.3.3.5 3.8h-12.5l1.7-1.7 5.3-1.4 1-1h-1.4l3.2-32.5-1.4-.3.8-10.4-5.3-7.3 3.2-14.7 6-2.7 2-1.8s-.9-2.1-.9-2.5-.5-2.5-.5-2.5-2.5-.7-2.5-1.1-.8-1 .6-1.6 1.9-.7 1.9-.7 0-4.5.6-4.9 2.3-1.1 3.5-.9h0V0z"/><path id="C" d="M1136.7 23.4l-4.4-.4v-.4c0-.1 0-.3-.2-.3s-.2 0-.2.2V24c-.2.1 0 .3 0 .3.1 0 .2 0 .2-.2v-.5l4.4.4v-.6h.2z"/></defs></svg>